<?xml version="1.0" encoding="iso-8859-1"?>
<!-- Generator: Adobe Illustrator 18.1.1, SVG Export Plug-In . SVG Version: 6.00 Build 0)  -->
<svg version="1.1" id="Capa_1" xmlns="http://www.w3.org/2000/svg" xmlns:xlink="http://www.w3.org/1999/xlink" x="0px" y="0px"
	 viewBox="0 0 32 32" style="enable-background:new 0 0 32 32;" xml:space="preserve">
<g id="shuffle">
	<path d="M30.997,23.431h-4.623c-2.811,0-5.454-1.095-7.443-3.083c-0.391-0.391-0.391-1.023,0-1.414s1.023-0.391,1.414,0
		c1.611,1.61,3.753,2.497,6.029,2.497h4.623c0.553,0,1,0.447,1,1S31.55,23.431,30.997,23.431z"/>
	<path d="M12.361,13.363c-0.256,0-0.512-0.098-0.707-0.293c-1.61-1.611-3.751-2.498-6.029-2.498H1c-0.553,0-1-0.447-1-1s0.447-1,1-1
		h4.625c2.812,0,5.456,1.096,7.443,3.084c0.391,0.391,0.391,1.023,0,1.414C12.873,13.266,12.617,13.363,12.361,13.363z"/>
	<path d="M5.623,23.431H1c-0.553,0-1-0.447-1-1s0.447-1,1-1h4.623c2.276,0,4.418-0.887,6.029-2.497l7.276-7.277
		c1.988-1.988,4.632-3.084,7.443-3.084h4.625c0.553,0,1,0.447,1,1s-0.447,1-1,1h-4.625c-2.277,0-4.418,0.887-6.029,2.498
		l-7.276,7.277C11.077,22.336,8.434,23.431,5.623,23.431z"/>
	<path d="M28.855,12.714c-0.256,0-0.512-0.098-0.707-0.292c-0.391-0.391-0.391-1.023-0.001-1.415l1.436-1.438l-1.435-1.435
		c-0.391-0.391-0.391-1.023,0-1.414s1.023-0.391,1.414,0l2.142,2.142c0.391,0.391,0.391,1.023,0.001,1.414l-2.142,2.145
		C29.368,12.616,29.111,12.714,28.855,12.714z"/>
	<path d="M28.855,25.572c-0.256,0-0.512-0.098-0.707-0.293c-0.391-0.391-0.391-1.023,0-1.414l1.437-1.438l-1.437-1.434
		c-0.391-0.391-0.391-1.023-0.001-1.415c0.391-0.391,1.024-0.39,1.415-0.001l2.145,2.142C31.895,21.907,32,22.162,32,22.428
		c0,0.265-0.105,0.52-0.293,0.707l-2.145,2.145C29.367,25.475,29.111,25.572,28.855,25.572z"/>
</g>
<g>
</g>
<g>
</g>
<g>
</g>
<g>
</g>
<g>
</g>
<g>
</g>
<g>
</g>
<g>
</g>
<g>
</g>
<g>
</g>
<g>
</g>
<g>
</g>
<g>
</g>
<g>
</g>
<g>
</g>
</svg>
